<svg width="156" height="169" viewBox="0 0 156 169" fill="none" xmlns="http://www.w3.org/2000/svg">
<path d="M143.576 30.729C143.256 30.4823 142.907 30.2647 142.543 30.0906C142.558 29.5683 142.543 29.0895 142.5 28.6398C142.136 25.2013 139.213 23.4022 132.8 20.6746C128.64 18.9046 125.776 17.9035 124.278 17.6859C124.089 17.149 123.958 16.7283 123.885 16.4381C123.885 14.9873 123.303 12.8835 120.453 11.0265C119.624 10.4751 118.519 9.88029 117.094 9.2129C114.796 8.12476 112.12 7.02212 110.535 6.42727C110.142 6.28219 109.095 5.84692 108.15 5.44068C99.5407 1.84258 94.6544 0 91.8331 0C89.9717 0 84.5763 0.478785 79.8354 1.16068C70.8481 2.45194 67.5032 3.80124 66.049 6.70294C65.3218 8.15379 64.9438 10.4026 64.5657 20.3409C61.4245 13.4204 58.8795 8.42943 57.7015 6.93506C56.7126 5.67282 55.2147 4.9474 53.615 4.9474C53.3824 4.9474 53.1643 4.96191 52.9316 4.99092L35.8294 7.25424C34.7387 7.39933 33.7353 7.86362 32.9355 8.63257L10.4961 29.7714C9.68174 30.5404 9.12919 31.5705 8.94014 32.6586C8.79471 33.384 7.80581 36.5614 6.93325 39.3615L6.86047 39.5937C-0.469017 63.0829 -0.992506 67.566 0.999834 70.8449C4.14104 75.9809 7.55854 76.924 13.1574 76.924C15.0916 76.924 22.1594 77.1707 28.9944 77.4028L30.0996 77.4463C39.0434 77.751 49.1941 78.0847 54.095 78.1282C57.018 78.1572 60.8573 80.7542 63.6495 82.6403L64.0131 82.887C64.2748 83.0756 64.5366 83.2497 64.7983 83.4093C66.4562 84.512 70.3972 87.6168 71.0516 92.5497C71.0226 99.9925 70.8335 153.268 70.7172 157.403C70.6154 161.088 70.5136 164.265 72.7677 166.586C73.6548 167.5 75.2399 168.589 77.7994 168.618H77.8721C80.737 168.618 82.5258 167.37 83.5147 166.325C84.4018 165.382 84.9399 164.338 85.2453 163.293H100.457V149.786H94.6253V144.301H100.457V129.14H85.856C85.8706 125.702 85.8851 122.742 85.856 120.928C85.8124 116.808 86.1179 106.347 86.2924 100.732L86.336 99.4702C86.365 98.7448 86.3795 98.1209 86.3941 97.6566C86.4232 96.6555 86.4378 95.8431 86.4523 95.1467C86.4959 93.2171 86.525 92.1434 86.6704 89.6625C86.8013 87.6023 86.9903 87.3121 88.75 84.628C89.8261 83.1192 96.3413 78.9987 101.286 77.0111C105.489 75.5747 139.707 73.0938 143.648 73.0647C147.691 73.0647 150.382 69.2925 152.49 65.6074C153.886 63.1409 155.37 59.9491 155.777 58.5127C156.33 56.5831 155.864 54.9001 154.279 51.0844C153.116 48.3133 151.618 45.1069 150.818 43.4384C145.408 32.1073 144.448 31.3819 143.619 30.7435L143.576 30.729ZM80.4898 129.126H80.3298V134.16H80.4462C80.4026 140.254 80.3299 146.913 80.2717 151.512C80.2281 154.864 80.199 157.287 80.199 157.823C80.199 158.143 80.228 158.476 80.2426 158.853C80.3153 160.159 80.4025 161.799 79.5881 162.64C79.1955 163.061 78.6138 163.264 77.7994 163.264C77.2177 163.264 76.8396 163.133 76.5778 162.872C75.9525 162.219 75.9234 160.667 76.0252 157.519C76.0834 155.444 76.1561 141.545 76.2288 127.094H80.4898C80.4898 127.747 80.4898 128.429 80.4898 129.126ZM76.2434 124.86C76.2579 120.406 76.287 115.966 76.3015 111.86H80.6207C80.5334 115.517 80.4752 118.955 80.4898 120.972C80.4898 121.944 80.4898 123.293 80.4898 124.86H76.2288H76.2434ZM67.736 78.9697C67.3724 78.7376 67.0088 78.4909 66.6307 78.2298C63.0678 75.8214 58.6468 72.8181 54.1095 72.7891C49.0778 72.7456 38.5053 72.3829 29.1834 72.0782C21.6358 71.817 15.1207 71.5994 13.1283 71.5994C8.60558 71.5994 7.32586 71.0046 5.52257 68.0738C4.21373 65.9266 9.02738 50.4605 11.9214 41.2186C12.7794 38.4765 13.5065 36.1552 13.8846 34.7478L34.7387 45.7453L66.0344 72.4554L70.4409 81.146C69.3938 80.1884 68.4195 79.4485 67.7214 78.9842L67.736 78.9697ZM66.4416 38.8828L75.0945 65.4768L75.2981 81.2621L71.9387 67.3194V67.2904L71.9097 67.2614L57.5561 41.2041L37.8218 12.3903L53.5423 10.3155C55.5201 12.9416 63.6495 30.9321 65.54 36.4889C65.8454 37.4029 66.1508 38.2009 66.4562 38.9118L66.4416 38.8828ZM106.041 10.3591C107.219 10.8523 108.15 11.2441 108.63 11.4182C112.876 13.0141 118.679 15.6547 118.519 16.4671C118.373 17.1635 119.173 19.3543 120.133 21.9368C120.249 22.2705 120.366 22.5607 120.468 22.8364L102.944 42.1327L102.885 42.2197L84.6781 70.018L84.6199 70.1195V70.1485L84.5908 70.1776L80.2135 84.3378C79.9662 84.4104 79.7191 84.4684 79.4719 84.541L80.4316 76.4597L85.6379 42.1472L92.9092 5.46971C95.9632 6.12259 102.391 8.80666 106.056 10.3446L106.041 10.3591ZM109.182 51.1569L109.095 51.215L88.4301 73.0793L83.6165 80.9138L86.6414 71.1206L104.689 43.5545L123.303 23.0685C123.405 23.0395 123.521 22.9669 123.609 22.9669C124.03 22.9669 127.463 24.1857 130.691 25.5785C135.403 27.5806 137.133 28.7703 137.177 29.2201C137.235 29.8149 137.133 30.6855 137.046 31.527C136.973 32.1363 136.915 32.7166 136.901 33.239L109.182 51.1714V51.1569ZM83.4274 41.7699L78.2066 76.1696L77.5377 81.7553L77.3341 65.2737V65.0706L69.3211 40.4642C69.3647 39.26 69.4229 37.0692 69.4956 34.3271C69.7137 25.4334 70.0773 10.5622 70.819 9.08233C71.7497 7.22524 85.8706 5.65832 90.6406 5.38266L83.4274 41.7699ZM55.6365 42.3213L69.8301 68.1028L72.9713 81.117L67.8814 71.0771L67.8522 71.0336L67.8087 71.0045L36.0912 43.9462L36.0185 43.8882L15.048 32.8182L35.7567 13.3043L55.6365 42.3213ZM76.9269 90.2138C77.5959 90.2138 79.0937 89.8946 81.3187 89.2998C81.1588 91.8678 81.1297 92.9269 81.0861 95.0451C81.0715 95.727 81.0569 96.525 81.0279 97.5115C81.0133 98.1789 80.9842 99.122 80.9552 100.254C80.8824 102.749 80.7807 106.188 80.6934 109.626H76.3306C76.3742 99.8619 76.3888 92.4626 76.3888 92.245C76.3015 91.476 76.1416 90.7651 75.9671 90.0687C76.447 90.2138 76.7378 90.2138 76.9414 90.2138H76.9269ZM90.1607 74.5011L110.549 52.927L138.558 34.8204C138.558 34.8204 138.689 34.8204 138.762 34.8059C139.009 34.7769 139.286 34.7333 139.533 34.7333C139.882 34.7333 140.144 34.8059 140.347 34.9655C141.176 35.5893 151.036 55.6111 150.614 57.0329C150.12 58.7449 145.888 67.7111 143.619 67.7111C140.784 67.7111 103.918 70.1776 99.308 72.0347C96.0068 73.3549 91.1496 75.9809 87.7466 78.4619L90.1752 74.5011H90.1607ZM95.367 134.175V139.252H89.5353V154.82H95.367V158.244H85.5652C85.5652 158.099 85.5652 157.925 85.5652 157.838C85.5652 157.475 85.5652 156.155 85.5943 154.312L85.6234 151.599C85.667 147.566 85.7543 140.631 85.7979 134.175H95.3815H95.367Z" fill="white"/>
</svg>
