<svg width="205" height="204" viewBox="0 0 205 204" fill="none" xmlns="http://www.w3.org/2000/svg">
<path d="M102.24 0C45.8667 0 0 45.759 0 102C0 158.241 45.8667 204 102.24 204C158.613 204 204.48 158.241 204.48 102C204.48 45.759 158.613 0 102.24 0ZM144.092 188.096V125.884C144.092 120.708 148.31 116.501 153.498 116.501H197.06C192.234 148.063 171.902 174.578 144.092 188.096ZM197.785 110.198H153.498C144.832 110.198 137.774 117.239 137.774 125.884V190.858C126.775 195.253 114.79 197.696 102.225 197.696C49.3302 197.696 6.30392 154.771 6.30392 102C6.30392 49.2289 49.3302 6.30362 102.225 6.30362C155.121 6.30362 198.147 49.2289 198.147 102C198.147 104.761 198.002 107.494 197.77 110.198H197.785Z" fill="white"/>
</svg>
