<svg width="49" height="55" viewBox="0 0 49 55" fill="none" xmlns="http://www.w3.org/2000/svg">
<path d="M32.9932 0H15.8117C7.09708 0 0 7.08033 0 15.7745V39.2255C0 47.9196 7.09708 55 15.8117 55H32.9932C41.7078 55 48.8048 47.9196 48.8048 39.2255V15.7745C48.8048 7.08033 41.7078 0 32.9932 0ZM42.451 39.2255C42.451 44.4303 38.2103 48.6611 32.9932 48.6611H15.8117C10.5946 48.6611 6.35387 44.4303 6.35387 39.2255V15.7745C6.35387 10.5696 10.5946 6.33887 15.8117 6.33887H32.9932C38.2103 6.33887 42.451 10.5696 42.451 15.7745V39.2255Z" fill="white"/>
</svg>
